# xmcd
#
# Track frame offsets:
#	150
#	13131
#	26653
#	42208
#	58268
#	81187
#	102252
#	111582
#	128056
#	145013
#	158376
#	175056
#
# Disc length: 2548 seconds
#
# Revision: 2
# Processed by: cddbd v1.5.2PL0 Copyright (c) Steve Scherf et al.
# Submitted via: audiograbber 1.83.01
#
DISCID=9909f20c
DTITLE=Vanda Breder - Uns Muitos
DYEAR=1900
DGENRE=Pop
TTITLE0=Luz de farol
TTITLE1=Uns muitos
TTITLE2=Logo eu
TTITLE3=Livre de você
TTITLE4=Hora contada
TTITLE5=Barra do Rio Grande
TTITLE6=A queda
TTITLE7=660 Huntington Blues
TTITLE8=Solitário tamborim
TTITLE9=Dois segundos
TTITLE10=Despedida de solteiro
TTITLE11=Apocalipse
EXTD=
EXTT0=Tavito - Zé Edu Camargo
EXTT1=Sonekka - Zé Edu Camargo
EXTT2=Sonekka - Zé Edu Camargo
EXTT3=Alexandre Lemos - Zé Edu Camargo
EXTT4=Guilherme Rondon - Zé Edu Camargo
EXTT5=Sonekka - Zé Edu Camargo
EXTT6=Sonekka - Zé Edu Camargo
EXTT7=Zé Rodrix - Zé Edu Camargo
EXTT8=Sonekka - Zé Edu Camargo
EXTT9=Celso Viafora - Zé Edu Camargo
EXTT10=Sonekka - Zé Edu Camargo
EXTT11=Ricardo Soares - Sonekka - Zé Edu Camargo
PLAYORDER=
